# xmcd
#
# Track frame offsets:
# 150
# 22040
# 42865
# 59847
# 90002
# 106685
# 119375
# 142552
# 163717
# 184722
# 208485
#
# Disc length: 3040 seconds
#
#
# Revision: 2
# Processed by: cddbd v1.5.1PL2 Copyright (c) Steve Scherf et al.
# Submitted via: FreeRIP 2.944 
#
DISCID=8e0bde0b
DTITLE=Duke Robillard - Temptation
DYEAR=1994
DGENRE=Bluesrock
TTITLE0=Rule The World
TTITLE1=(You Got My Love) Sewed Up
TTITLE2=Live To Give
TTITLE3=The Change Is On
TTITLE4=Life's Funny
TTITLE5=When My Love Comes Down
TTITLE6=This Dream (Still Coming True)
TTITLE7=Temptation
TTITLE8=Never Been Satisfied
TTITLE9=Born To Love You
TTITLE10=What's Wrong?
EXTD=
EXTT0=
EXTT1=
EXTT2=
EXTT3=
EXTT4=
EXTT5=
EXTT6=
EXTT7=
EXTT8=
EXTT9=
EXTT10=
PLAYORDER=
